<svg xmlns="http://www.w3.org/2000/svg" xmlns:xlink="http://www.w3.org/1999/xlink" version="1.1" x="0px" y="0px" viewBox="0 0 100 125" style="enable-background:new 0 0 100 100;" xml:space="preserve" fill="white" stroke="white"><g><path d="M86,78c1.1,0,2-0.9,2-2V29c0-1.1-0.9-2-2-2H71.2l-4.4-8c-0.4-0.6-1-1-1.7-1H37c-0.7,0-1.3,0.3-1.7,0.9L29.9,27H16   c-1.1,0-2,0.9-2,2v47c0,1.1,0.9,2,2,2H86z M18,31h13c0.7,0,1.3-0.3,1.7-0.9l5.4-8.1h25.8l4.4,8c0.4,0.6,1,1,1.7,1h14v43H18V31z"/><path d="M51,34c-9,0-16.3,7.3-16.3,16.3c0,9,7.3,16.3,16.3,16.3s16.3-7.3,16.3-16.3C67.3,41.3,60,34,51,34z M51,62.7   c-6.8,0-12.3-5.5-12.3-12.3C38.7,43.5,44.2,38,51,38s12.3,5.5,12.3,12.3C63.3,57.1,57.8,62.7,51,62.7z"/></g></svg>