<svg stroke="white" stroke-width="4" fill="white" xmlns="http://www.w3.org/2000/svg" xmlns:xlink="http://www.w3.org/1999/xlink" version="1.1" x="0px" y="0px" viewBox="0 0 100 125" style="enable-background:new 0 0 100 100;" xml:space="preserve"><path d="M50,5.8c24.3,0,44,19.7,44,44s-19.7,44-44,44S6,74,6,49.8S25.7,5.8,50,5.8 M50,4.8c-24.9,0-45,20.1-45,45  c0,24.9,20.1,45,45,45s45-20.1,45-45C95,24.9,74.9,4.8,50,4.8L50,4.8z"/><g><path d="M56.5,66.1H44v-1.7c0.5-0.2,0.9-0.4,1.4-0.6c0.5-0.2,1-0.3,1.6-0.5V46.6l-3-0.4v-1.7c0.5-0.2,1-0.4,1.7-0.5   c0.7-0.2,1.4-0.3,2.2-0.5c0.8-0.1,1.5-0.3,2.2-0.4c0.7-0.1,1.4-0.2,1.9-0.2h1.5v20.4c0.6,0.2,1.1,0.3,1.6,0.5   c0.5,0.2,0.9,0.4,1.4,0.6V66.1z M46.3,36c0-1.1,0.4-1.9,1.1-2.5c0.7-0.6,1.6-0.9,2.8-0.9c1.1,0,2.1,0.3,2.8,0.9   c0.7,0.6,1.1,1.4,1.1,2.5c0,1-0.4,1.8-1.1,2.5c-0.7,0.6-1.6,0.9-2.8,0.9c-1.1,0-2.1-0.3-2.8-0.9C46.6,37.9,46.3,37,46.3,36z"/></g></svg>